<svg width="100" height="100" viewBox="0 0 100 100" fill="none" xmlns="http://www.w3.org/2000/svg">
<rect width="100" height="100" fill="#E5E5E5"/>
<g id="Frame 1">
<rect width="100" height="100" fill="#AC474B"/>
<ellipse id="puddle" cx="50.5" cy="91.5" rx="17.5" ry="3.5" fill="#DCF1F3"/>
<circle id="body" cx="49.5" cy="71.5" r="22.5" fill="white"/>
<circle id="face" cx="50" cy="41" r="15" fill="white"/>
<path id="muffler_body" d="M36 50C36 48.8954 36.8954 48 38 48H62C63.1046 48 64 48.8954 64 50V50C64 51.1046 63.1046 52 62 52H38C36.8954 52 36 51.1046 36 50V50V50Z" fill="#FFA63F"/>
<circle id="eye_left" cx="43.5" cy="38.5" r="2.5" fill="#0E1F2B"/>
<circle id="eye_right" cx="56.5" cy="38.5" r="2.5" fill="#0E1F2B"/>
<rect id="hat_rim" x="36" y="26" width="27" height="3" fill="#0E1F2B"/>
<rect id="hat_body" x="41" y="9" width="18" height="17" fill="#0E1F2B"/>
<rect id="hat_strip" x="41" y="17" width="18" height="4" fill="white"/>
<circle id="button1" cx="50" cy="66" r="1" fill="#FF0000"/>
<circle id="button2" cx="50" cy="76" r="1" fill="#FF0000"/>
<circle id="button3" cx="50" cy="86" r="1" fill="#FF0000"/>
<path id="nose" d="M42.8438 42.1949C42.6372 42.1471 42.6372 41.8529 42.8438 41.8051L49.255 40.3245C49.3803 40.2956 49.5 40.3908 49.5 40.5194V43.4806C49.5 43.6092 49.3803 43.7044 49.255 43.6755L42.8438 42.1949Z" fill="#FF8800"/>
<path id="mufler_left_top" d="M43.5351 49.1948L51.2313 50.525L48.5351 57.8551L40.839 56.525L43.5351 49.1948Z" fill="#FFA63F"/>
<path id="mufler_left_bottom" d="M40.9962 56L48.6923 57.3301L45.9962 64.6603L38.3 63.3301L40.9962 56Z" fill="#FFA63F"/>
<path id="mufler_right" d="M51.8491 48.6946L54.7464 55.298L49.7653 60.5123L46.868 53.9088L51.8491 48.6946Z" fill="#FFA63F"/>
<rect id="Rectangle 1" x="38" y="91" width="23" height="3" fill="#DCF0F3"/>
</g>
</svg>
